<?xml version="1.0" encoding="utf-8"?>
<!-- Svg Vector Icons : http://www.onlinewebfonts.com/icon -->
<!DOCTYPE svg PUBLIC "-//W3C//DTD SVG 1.1//EN" "http://www.w3.org/Graphics/SVG/1.1/DTD/svg11.dtd">
<svg version="1.1" xmlns="http://www.w3.org/2000/svg" xmlns:xlink="http://www.w3.org/1999/xlink" x="0px" y="0px" viewBox="0 0 1000 1000" enable-background="new 0 0 1000 1000" xml:space="preserve">
<metadata> Svg Vector Icons : http://www.onlinewebfonts.com/icon </metadata>
<g><g transform="matrix(1 0 0 -1 0 960)"><path d="M232.7-30c-12.5,0-23,4.3-31.6,12.9c-8.6,8.6-12.9,19.2-12.9,31.6v890.9c0,12.5,4.3,23,12.9,31.6c8.6,8.6,19.2,12.9,31.6,12.9h89.1c12.5,0,23-4.3,31.6-12.9c8.6-8.6,12.9-19.2,12.9-31.6V515.2l413.4,403.6c7.7,6.5,14,9.8,18.7,9.8c8.9,0,13.4-7.7,13.4-23.2V14.5c0-15.4-4.5-23.2-13.4-23.2c-4.8,0-11,3.3-18.7,9.8L366.4,404.8V14.5c0-12.5-4.3-23-12.9-31.6c-8.6-8.6-19.2-12.9-31.6-12.9H232.7z"/></g></g>
</svg>