<?xml version="1.0" encoding="iso-8859-1"?>
<!-- Generator: Adobe Illustrator 19.0.0, SVG Export Plug-In . SVG Version: 6.00 Build 0)  -->
<svg version="1.1" id="Layer_1" xmlns="http://www.w3.org/2000/svg" xmlns:xlink="http://www.w3.org/1999/xlink" x="0px" y="0px"
	 viewBox="0 0 491.52 491.52" style="enable-background:new 0 0 491.52 491.52;" xml:space="preserve">
<g>
	<g>
		<g>
			<polygon points="225.28,409.6 225.28,491.52 266.24,491.52 266.24,409.6 245.76,409.6 			"/>
			<path d="M204.8,225.28h-61.44H81.92H0v143.36h61.44v-102.4c0-11.305,9.155-20.48,20.48-20.48h61.44
				c11.325,0,20.48,9.175,20.48,20.48v102.4h40.96h26.378c1.352-6.697,1.352-13.783,0-20.48h-5.898
				c-7.107,0-13.681-3.686-17.428-9.708c-3.727-6.042-4.076-13.578-0.901-19.927c6.472-12.902,6.472-30.228,0-43.131
				c-3.174-6.349-2.826-13.885,0.901-19.927c3.748-6.021,10.322-9.708,17.428-9.708h161.28c24.392,0,43.52,22.487,43.52,51.2
				c0,5.816-0.963,11.264-2.417,16.425c13.681,8.54,22.897,25.19,22.897,45.015c0,3.523-0.307,6.943-0.86,10.24h41.82V225.28H266.24
				H204.8z"/>
			<rect x="225.28" y="102.394" width="20.48" height="81.92"/>
			<rect x="102.4" y="286.714" width="20.48" height="81.92"/>
			<path d="M385.761,307.2c1.126-1.004,3.359-4.526,3.359-10.24c0-6.287-2.724-9.912-3.666-10.465l-133.325,0.184
				c0.737,6.82,0.737,13.722,0.021,20.521H385.761z"/>
			<path d="M409.6,358.4c0-6.287-2.724-9.912-3.666-10.465l-17.592,0.021c-0.614,0.021-1.167,0.205-1.782,0.205H272.609
				c0.717,6.799,0.737,13.701,0.02,20.48h14.09h119.521C407.368,367.636,409.6,364.114,409.6,358.4z"/>
			<polygon points="347.501,94.71 328.966,103.414 363.823,177.551 382.357,168.847 			"/>
			<path d="M471.04,0H20.48C9.155,0,0,9.175,0,20.48v163.84h61.44V81.92c0-11.305,9.155-20.48,20.48-20.48h61.44
				c11.325,0,20.48,9.175,20.48,20.48h20.48c0-11.305,9.155-20.48,20.48-20.48h61.44c10.691,0,19.169,8.253,20.111,18.678
				c1.802-2.048,4.014-3.809,6.656-5.038l55.583-26.153c10.24-4.833,22.426-0.41,27.279,9.83l52.265,111.186
				c2.212,4.69,2.273,9.748,0.922,14.377h62.464V20.48C491.52,9.175,482.365,0,471.04,0z"/>
			<path d="M81.92,409.6H0v61.44c0,11.305,9.155,20.48,20.48,20.48h163.84V409.6h-40.96H81.92z"/>
			<path d="M307.2,409.6v81.92h163.84c11.325,0,20.48-9.175,20.48-20.48V409.6h-84.48H307.2z"/>
			<polygon points="286.72,184.326 321.741,184.326 286.72,109.84 			"/>
			<rect x="163.84" y="122.874" width="20.48" height="61.44"/>
			<rect x="102.4" y="102.394" width="20.48" height="81.92"/>
		</g>
	</g>
</g>
<g>
</g>
<g>
</g>
<g>
</g>
<g>
</g>
<g>
</g>
<g>
</g>
<g>
</g>
<g>
</g>
<g>
</g>
<g>
</g>
<g>
</g>
<g>
</g>
<g>
</g>
<g>
</g>
<g>
</g>
</svg>
