<?xml version="1.0" encoding="utf-8"?>
<!-- Svg Vector Icons : http://www.onlinewebfonts.com/icon -->
<!DOCTYPE svg PUBLIC "-//W3C//DTD SVG 1.1//EN" "http://www.w3.org/Graphics/SVG/1.1/DTD/svg11.dtd">
<svg version="1.1" xmlns="http://www.w3.org/2000/svg" xmlns:xlink="http://www.w3.org/1999/xlink" x="0px" y="0px" viewBox="0 0 1000 1000" enable-background="new 0 0 1000 1000" xml:space="preserve">
<metadata> Svg Vector Icons : http://www.onlinewebfonts.com/icon </metadata>
<g><g transform="translate(0.000000,512.000000) scale(0.100000,-0.100000)"><path d="M560.3,5010.4c-172.6-42.2-329.9-172.6-412.3-337.5L100,4577V118.1v-4458.9l47.9-95.9c59.5-122.7,174.5-237.8,297.3-297.2l95.9-47.9H5000h4458.9l95.9,47.9c122.7,59.4,237.8,174.5,297.3,297.2l47.9,95.9V118.1V4577l-47.9,95.9c-59.4,122.7-174.5,237.8-297.3,297.3l-95.9,47.9l-4420.5,3.8C2606.6,5021.9,592.9,5018.1,560.3,5010.4z M4039.2,2446.3c297.3-67.1,565.8-214.8,805.5-441.1l164.9-157.3l153.4,147.7c379.7,364.4,868.8,537,1363.6,481.4c843.8-94,1482.5-761.4,1536.2-1603.3c23-375.9-130.4-736.4-494.8-1168c-71-84.4-677-700-1344.4-1365.5l-1214-1214L3730.4-1592.6c-703.8,703.8-1306,1313.7-1340.5,1355.9c-197.5,251.3-345.2,529.3-404.7,763.3c-32.6,128.5-38.4,191.8-28.8,339.5c46,717.3,508.2,1319.4,1181.4,1536.2C3437,2498.1,3745.8,2513.4,4039.2,2446.3z"/></g></g>
</svg>